<svg width="22" height="22" viewBox="0 0 22 22" fill="none" xmlns="http://www.w3.org/2000/svg">
<path d="M21.16 20.58L15.58 14.9C16.94 13.38 17.76 11.4 17.76 9.22001C17.76 4.52001 13.9399 0.680008 9.21995 0.680008C4.49995 0.680008 0.699951 4.52001 0.699951 9.22001C0.699951 13.92 4.51995 17.76 9.23995 17.76C11.46 17.76 13.46 16.9 14.98 15.52L20.5599 21.18C20.6399 21.26 20.76 21.3 20.86 21.3C20.96 21.3 21.08 21.26 21.16 21.18C21.34 21.02 21.34 20.74 21.16 20.58ZM9.23995 16.9C5.01995 16.9 1.57995 13.46 1.57995 9.24001C1.57995 5.00001 4.99995 1.56001 9.23995 1.56001C13.4799 1.56001 16.9 5.00001 16.9 9.22001C16.9 13.46 13.4599 16.9 9.23995 16.9Z" fill="#010202"/>
</svg>
