<svg width="17" height="22" viewBox="0 0 17 22" fill="none" xmlns="http://www.w3.org/2000/svg">
<path d="M16.04 18.58C16.04 18.38 15.9433 13.82 13.2946 11.16C12.4053 10.26 11.3226 9.69999 10.066 9.47999C11.69 8.83999 12.8306 7.21999 12.8306 5.33999C12.8306 2.89999 10.9166 0.899994 8.53863 0.899994C6.16063 0.899994 4.24663 2.87999 4.24663 5.33999C4.24663 7.25999 5.42596 8.89999 7.08863 9.49999C1.23063 10.72 0.959961 18.5 0.959961 18.58V18.82L1.15329 18.94C1.28863 19.02 4.67196 21.1 8.53863 21.1C12.4053 21.1 15.692 19.04 15.8466 18.94L16.04 18.82V18.58ZM5.03929 5.33999C5.03929 3.33999 6.60529 1.71999 8.53863 1.71999C10.472 1.71999 12.038 3.33999 12.038 5.33999C12.038 7.33999 10.472 8.95999 8.53863 8.95999C6.62463 8.95999 5.03929 7.33999 5.03929 5.33999ZM8.55796 20.28C5.42596 20.28 2.54529 18.8 1.77196 18.36C1.81063 17.74 2.00396 16.06 2.69996 14.38C3.85996 11.62 5.83196 10.2 8.55796 10.16C10.24 10.12 11.6513 10.66 12.734 11.76C14.822 13.86 15.17 17.42 15.228 18.38C14.4933 18.8 11.6706 20.28 8.55796 20.28Z" fill="#010202"/>
</svg>
